
<svg width="2" height="2" viewBox="0 0 2 2" fill="none" xmlns="http://www.w3.org/2000/svg">
<path d="M1.78125 1C1.78125 1.15452 1.73543 1.30556 1.64959 1.43404C1.56374 1.56252 1.44173 1.66265 1.29897 1.72178C1.15622 1.78091 0.999134 1.79638 0.847586 1.76624C0.696038 1.73609 0.556833 1.66169 0.447573 1.55243C0.338313 1.44317 0.263906 1.30396 0.233762 1.15241C0.203617 1.00087 0.219089 0.843783 0.27822 0.701028C0.337351 0.558274 0.437485 0.436259 0.565961 0.350414C0.694437 0.264569 0.845484 0.21875 1 0.21875C1.2072 0.21875 1.40592 0.30106 1.55243 0.447573C1.69894 0.594086 1.78125 0.7928 1.78125 1Z" fill="#050505"/>
</svg>
